<svg width="15" height="15" viewBox="0 0 15 15" fill="none" xmlns="http://www.w3.org/2000/svg">
<path d="M13.1875 13.625H6.10703L11.9008 7.83828L13.75 5.98204C13.855 5.87808 13.9384 5.75433 13.9953 5.61796C14.0522 5.48158 14.0815 5.33527 14.0815 5.1875C14.0815 5.03973 14.0522 4.89343 13.9953 4.75705C13.9384 4.62067 13.855 4.49693 13.75 4.39297L10.607 1.25C10.3952 1.04131 10.1098 0.924332 9.8125 0.924332C9.51516 0.924332 9.22976 1.04131 9.01797 1.25L0.580469 9.6875C0.475632 9.79154 0.392449 9.91533 0.335728 10.0517C0.279006 10.1881 0.249869 10.3343 0.25 10.482V13.625C0.25 13.9234 0.368527 14.2095 0.579505 14.4205C0.790484 14.6315 1.07663 14.75 1.375 14.75H13.1875C13.3367 14.75 13.4798 14.6907 13.5852 14.5853C13.6907 14.4798 13.75 14.3367 13.75 14.1875C13.75 14.0383 13.6907 13.8952 13.5852 13.7898C13.4798 13.6843 13.3367 13.625 13.1875 13.625ZM1.375 10.482L8.125 3.73204L11.268 6.875L4.51797 13.625H1.375V10.482Z" fill="#00FFFF"/>
</svg>
